<svg viewBox="0 0 28 25" xmlns="http://www.w3.org/2000/svg" xmlns:serif="http://www.serif.com/" fill-rule="evenodd" clip-rule="evenodd" stroke-linejoin="round" stroke-miterlimit="1.414"><path serif:id="Cart Plus Icon" d="M20.992 14.001a7 7 0 1 1 .002-14.002 7 7 0 0 1-.002 14.002zm3-8.001h-2V4.001a1 1 0 1 0-2 0V6h-2a1 1 0 1 0 0 2.001h2V10a1 1 0 1 0 2 0V8.001h2a1 1 0 0 0 0-2.001zm-12-3.999a4 4 0 0 0-4 3.999v2.99h4.228c.906 4.012 4.486 7.01 8.772 7.01a8.99 8.99 0 0 0 1.975-.224l.988 6.336c.088.484-.025.933-.328 1.312a1.467 1.467 0 0 1-1.184.576H1.541c-.475 0-.881-.197-1.184-.576a1.582 1.582 0 0 1-.328-1.312l1.843-11.821c.138-.764.762-1.301 1.512-1.301h2.608V6a6 6 0 0 1 6-6c.951 0 1.838.242 2.637.635a9.087 9.087 0 0 0-1.274 1.62 3.955 3.955 0 0 0-1.363-.254zm-4 7h-2v2.277a1.99 1.99 0 0 0-1 1.723 2 2 0 0 0 4 0c0-.739-.405-1.377-1-1.723V9.001z" fill="#03bd5b"/></svg>