<svg viewBox="0 0 28 25" xmlns="http://www.w3.org/2000/svg" xmlns:serif="http://www.serif.com/" fill-rule="evenodd" clip-rule="evenodd" stroke-linejoin="round" stroke-miterlimit="1.414"><path serif:id="Cart Amount Icon" d="M20.992 14a7 7 0 1 1 0-14 7 7 0 0 1 0 14zm-9-12a4 4 0 0 0-4 4v2.989h4.228C13.126 13.001 16.706 16 20.992 16a8.99 8.99 0 0 0 1.975-.224l.988 6.335c.088.484-.025.934-.328 1.313a1.467 1.467 0 0 1-1.184.576H1.54c-.474 0-.88-.197-1.183-.576a1.584 1.584 0 0 1-.328-1.313L1.872 10.29c.138-.763.762-1.301 1.512-1.301h2.608V6a6 6 0 0 1 6-6c.951 0 1.838.241 2.637.635a9.045 9.045 0 0 0-1.274 1.619A3.978 3.978 0 0 0 11.992 2zm-4 7h-2v2.277c-.596.347-1 .985-1 1.723a2 2 0 1 0 4 0c0-.738-.405-1.376-1-1.723V9z" fill="#8393a7"/></svg>