<svg viewBox="0 0 16 14" xmlns="http://www.w3.org/2000/svg" xmlns:serif="http://www.serif.com/" fill-rule="evenodd" clip-rule="evenodd" stroke-linejoin="round" stroke-miterlimit="1.414"><path serif:id="List Icon" d="M15 10H5a1 1 0 0 1 0-2.001h10A1 1 0 0 1 15 10zm0-4H5a1 1 0 0 1 0-2h10a1 1 0 1 1 0 2zm0-4H5a1 1 0 0 1 0-2h10a1 1 0 0 1 0 2zM1 14a1 1 0 1 1 0-2 1 1 0 0 1 0 2zm0-4a1 1 0 1 1 0-2 1 1 0 0 1 0 2zm0-4a1 1 0 1 1 0-2 1 1 0 0 1 0 2zm0-4a1 1 0 1 1 0-2 1 1 0 0 1 0 2zm4 10h10a1 1 0 1 1 0 2H5a1 1 0 0 1 0-2z" fill="#eceff4"/></svg>