<svg viewBox="0 0 17 16" xmlns="http://www.w3.org/2000/svg" xmlns:serif="http://www.serif.com/" fill-rule="evenodd" clip-rule="evenodd" stroke-linejoin="round" stroke-miterlimit="1.414"><path serif:id="Tiles Big Icon" d="M14.957 16h-4.87a1.044 1.044 0 0 1-1.043-1.044v-4.869c0-.576.467-1.043 1.043-1.043h4.87c.576 0 1.043.467 1.043 1.043v4.869c0 .576-.467 1.044-1.043 1.044zm0-9.044h-4.87a1.043 1.043 0 0 1-1.043-1.043v-4.87C9.044.467 9.511 0 10.087 0h4.87C15.533 0 16 .467 16 1.043v4.87c0 .576-.467 1.043-1.043 1.043zM5.913 16H1.044A1.044 1.044 0 0 1 0 14.956v-4.869c0-.576.467-1.043 1.044-1.043h4.869c.576 0 1.044.467 1.044 1.043v4.869c0 .576-.468 1.044-1.044 1.044zm0-9.044H1.044A1.043 1.043 0 0 1 0 5.913v-4.87C0 .467.467 0 1.044 0h4.869c.576 0 1.044.467 1.044 1.043v4.87c0 .576-.468 1.043-1.044 1.043z" fill="#8393a7"/></svg>